<svg id="Calque_1" data-name="Calque 1" xmlns="http://www.w3.org/2000/svg" width="464" height="1292" viewBox="0 0 464 1292"><defs><style>.cls-1{fill:#171819;}</style></defs><title>bar_3</title><path class="cls-1" d="M464,0H0V1292H464ZM176,352h69v66H176ZM115,888a61,61,0,1,1,61-61A61,61,0,0,1,115,888ZM324.5,594.1c-.1-.1-6-9.3-14-9.3s-13.5,9.1-13.6,9.2c-.3.6-6.8,11.3-17.1,11.3s-17.1-10.7-17.4-11.1c-.1-.1-6-9.3-14-9.3-6.1,0-10.7,5.3-12.6,7.8l-.8,1.4c-.3.5-6.8,11.2-17,11.2s-17.1-10.7-17.4-11.1c-.1-.1-6-9.3-14-9.3s-13.5,9.1-13.6,9.2c-.3.5-6.8,11.2-17,11.2s-17-10.7-17.3-11.1l3.4-2.1c.1.1,6,9.3,14,9.3s13.5-9.1,13.6-9.2c.2-.6,6.7-11.3,17-11.3s17,10.7,17.3,11.1c.1.1,6,9.3,14,9.3,6.1,0,10.7-5.3,12.6-7.8l.8-1.4c.3-.5,6.8-11.2,17.1-11.2s17.1,10.7,17.4,11.1c.1.1,6,9.3,14,9.3s13.5-9.1,13.6-9.2c.3-.5,6.8-11.2,17-11.2s17.1,10.7,17.4,11.1Z"/></svg>