<?xml version="1.0" standalone="no"?>
<!DOCTYPE svg PUBLIC "-//W3C//DTD SVG 20010904//EN"
 "http://www.w3.org/TR/2001/REC-SVG-20010904/DTD/svg10.dtd">
<svg version="1.0" xmlns="http://www.w3.org/2000/svg"
 width="527.000000pt" height="209.000000pt" viewBox="0 0 527.000000 209.000000"
 preserveAspectRatio="xMidYMid meet">
<metadata>
Created by potrace 1.15, written by Peter Selinger 2001-2017
</metadata>
<g transform="translate(0.000000,209.000000) scale(0.100000,-0.100000)"
fill="#000000" stroke="none">
<path d="M715 1934 c-44 -8 -128 -16 -186 -18 -122 -4 -151 -11 -147 -34 2
-10 10 -17 17 -17 15 0 47 -100 56 -175 3 -25 5 -119 6 -209 0 -90 4 -173 9
-185 13 -35 14 -272 1 -391 -7 -60 -14 -132 -16 -160 -2 -27 -6 -65 -10 -83
-10 -44 4 -40 40 11 60 86 113 131 280 241 138 92 189 133 271 217 107 110
161 184 194 269 29 74 41 171 29 238 -22 116 -108 240 -196 283 -59 28 -230
35 -348 13z m172 -65 c54 -23 133 -96 159 -146 10 -21 24 -45 30 -53 16 -20
35 -241 27 -310 -3 -30 -13 -68 -21 -85 -16 -31 -151 -195 -161 -195 -3 0 -40
-30 -81 -67 -41 -36 -99 -77 -130 -90 -30 -14 -62 -31 -71 -39 -15 -13 -17
-13 -25 3 -4 10 -9 187 -10 393 -1 206 -5 418 -9 471 -6 107 -5 110 62 135 49
18 169 9 230 -17z"/>
<path d="M1669 1767 c-39 -29 -44 -38 -44 -73 0 -51 24 -56 90 -17 64 37 74
55 55 91 -22 38 -50 38 -101 -1z"/>
<path d="M1448 1677 c-34 -26 -44 -40 -46 -68 -5 -54 16 -65 69 -39 86 44 118
109 63 130 -36 14 -38 14 -86 -23z"/>
<path d="M3940 1580 c-8 -6 -51 -22 -95 -36 -60 -19 -91 -24 -126 -19 -43 6
-48 4 -102 -41 -31 -26 -54 -51 -51 -56 8 -12 56 -10 110 7 62 19 84 19 84 0
0 -20 -66 -151 -80 -160 -16 -10 -39 -70 -62 -163 -23 -92 -18 -132 25 -198
29 -44 85 -56 118 -25 13 12 29 21 36 21 20 0 83 43 83 57 0 6 -27 26 -61 44
-33 18 -64 39 -68 48 -5 9 -8 48 -6 86 2 57 10 87 43 163 50 113 110 222 122
222 5 0 18 14 30 30 23 32 23 35 0 20z"/>
<path d="M4230 1529 c-115 -82 -144 -111 -175 -181 -23 -50 -25 -64 -16 -85 8
-18 8 -22 0 -17 -7 4 -10 1 -7 -7 4 -10 22 -13 69 -11 39 1 78 -4 101 -13 21
-8 38 -12 38 -8 0 4 5 2 12 -5 7 -7 22 -12 35 -12 13 0 23 -4 23 -10 0 -5 6
-10 14 -10 27 0 74 -67 86 -123 12 -59 5 -91 -28 -120 -19 -17 -20 -17 -37 0
-10 10 -28 41 -41 69 -20 47 -27 52 -67 63 -31 7 -60 8 -93 1 -27 -6 -64 -12
-82 -14 -35 -4 -38 -6 -124 -80 -66 -56 -80 -92 -23 -56 51 32 131 37 226 14
58 -14 79 -23 79 -35 0 -8 11 -26 25 -39 24 -23 25 -23 68 -6 52 20 162 106
162 127 0 9 8 27 17 40 29 45 38 97 26 153 -12 56 -38 86 -73 86 -13 0 -44 17
-70 39 -45 37 -51 39 -131 43 -46 2 -89 9 -94 14 -5 5 -2 30 9 64 14 44 24 58
50 72 30 15 36 15 65 1 28 -13 31 -19 28 -49 -4 -29 -1 -35 24 -45 21 -8 46
-8 89 -1 90 14 128 34 154 78 l23 39 -35 -34 c-29 -28 -40 -32 -63 -27 -40 10
-84 44 -84 65 0 21 -60 81 -81 81 -8 0 -52 -27 -99 -61z"/>
<path d="M2187 1544 c-3 -4 -52 -23 -108 -43 -129 -46 -140 -63 -34 -54 76 6
77 6 66 -14 -6 -11 -18 -23 -26 -27 -35 -13 -75 -167 -75 -287 0 -50 6 -77 26
-117 35 -70 159 -180 180 -160 3 3 -10 50 -29 104 -37 107 -43 165 -31 303 6
73 10 87 37 118 63 72 146 84 232 34 73 -42 107 -82 116 -138 41 -237 32 -338
-51 -548 -60 -150 -174 -358 -254 -460 -30 -39 -24 -35 28 20 36 38 94 117
128 175 86 145 216 403 269 535 41 103 43 116 43 205 -1 135 -23 200 -92 269
l-54 54 -111 -6 c-103 -6 -118 -10 -181 -43 -37 -19 -70 -33 -73 -30 -3 3 4
30 15 61 20 52 20 55 3 55 -10 0 -21 -3 -24 -6z"/>
<path d="M2977 1544 c-3 -4 -52 -23 -108 -43 -129 -46 -140 -63 -34 -54 76 6
77 6 66 -14 -6 -11 -18 -23 -26 -27 -35 -13 -75 -167 -75 -287 0 -50 6 -77 26
-117 35 -70 159 -180 180 -160 3 3 -10 50 -29 104 -37 107 -43 165 -31 303 6
73 10 87 37 118 63 72 146 84 232 34 73 -42 107 -82 116 -138 41 -237 32 -338
-51 -548 -60 -150 -174 -358 -254 -460 -30 -39 -24 -35 28 20 36 38 94 117
128 175 86 145 216 403 269 535 41 103 43 116 43 205 -1 135 -23 200 -92 269
l-54 54 -111 -6 c-103 -6 -118 -10 -181 -43 -37 -19 -70 -33 -73 -30 -3 3 4
30 15 61 20 52 20 55 3 55 -10 0 -21 -3 -24 -6z"/>
<path d="M1543 1515 c-143 -44 -240 -163 -262 -320 -10 -72 0 -132 30 -182 51
-81 186 -161 254 -149 103 17 138 27 181 50 27 14 53 26 58 26 17 0 126 53
126 61 0 12 -7 11 -40 -6 -59 -31 -166 -67 -195 -66 -16 1 -51 6 -78 12 -39 9
-53 19 -77 55 -33 47 -80 137 -80 150 1 26 31 35 195 59 219 33 258 49 90 38
-66 -4 -160 -8 -210 -8 l-90 0 -3 52 c-3 57 13 99 57 146 37 40 68 55 137 62
69 8 126 -5 178 -40 34 -23 39 -24 69 -12 l32 14 -42 21 c-92 48 -243 65 -330
37z"/>
</g>
</svg>
