<?xml version="1.0" standalone="no"?>
<!DOCTYPE svg PUBLIC "-//W3C//DTD SVG 20010904//EN"
 "http://www.w3.org/TR/2001/REC-SVG-20010904/DTD/svg10.dtd">
<svg version="1.0" xmlns="http://www.w3.org/2000/svg"
 width="636.000000pt" height="272.000000pt" viewBox="0 0 636.000000 272.000000"
 preserveAspectRatio="xMidYMid meet">
<metadata>
Created by potrace 1.15, written by Peter Selinger 2001-2017
</metadata>
<g transform="translate(0.000000,272.000000) scale(0.100000,-0.100000)"
fill="#000000" stroke="none">
<path d="M4473 2020 c-71 -36 -119 -87 -134 -145 -17 -61 -5 -149 25 -195 26
-40 24 -49 -16 -63 -17 -6 -18 -34 -18 -407 0 -358 2 -401 16 -407 9 -3 102 5
207 17 209 26 250 39 255 83 l3 26 75 -49 c131 -85 251 -117 408 -107 231 14
482 175 531 339 53 178 -27 358 -190 428 -54 23 -60 3 61 199 46 74 84 140 84
148 0 18 -128 80 -202 98 -216 51 -504 -34 -647 -191 -99 -109 -96 -243 9
-337 52 -48 82 -61 240 -102 172 -45 184 -50 176 -78 -3 -12 -6 -25 -6 -29 0
-13 -58 -38 -87 -38 -47 1 -107 35 -151 86 l-42 49 -37 -20 c-33 -18 -48 -41
-128 -195 l-90 -175 -5 355 -5 355 -22 3 -22 3 22 42 c13 25 23 66 25 102 3
51 -1 68 -25 114 -41 78 -93 112 -180 118 -61 4 -74 2 -130 -27z m317 -765 l0
-364 -32 -6 c-36 -6 -348 -45 -360 -45 -5 0 -8 173 -8 384 l0 385 38 4 c20 2
110 4 200 5 l162 2 0 -365z m544 349 c14 -8 77 -28 142 -44 145 -36 212 -68
263 -126 78 -89 99 -237 49 -346 -46 -100 -172 -199 -318 -249 -77 -27 -241
-32 -330 -10 -68 16 -185 72 -230 109 l-33 28 92 177 92 177 32 -42 c18 -23
52 -52 76 -65 107 -56 251 -4 251 92 0 39 -22 50 -194 95 -185 48 -239 78
-276 150 -37 72 -42 70 170 70 156 0 195 -3 214 -16z"/>
<path d="M2358 2023 l-28 -14 0 -605 c0 -554 1 -605 17 -611 25 -10 453 58
488 77 28 15 30 21 30 71 0 30 -4 99 -8 153 l-8 99 113 -119 c62 -65 147 -155
189 -198 l77 -79 36 17 36 17 0 509 0 510 -22 14 c-13 7 -112 48 -221 91
l-197 77 -35 -16 c-43 -21 -43 -24 -9 -197 14 -72 24 -133 22 -135 -2 -1 -99
78 -215 177 -117 98 -218 179 -225 178 -7 -1 -25 -8 -40 -16z m538 -429 l34
-26 0 26 0 26 175 0 175 0 0 -392 -1 -393 -87 93 c-48 50 -150 159 -227 241
-127 136 -140 147 -143 123 -2 -15 4 -108 12 -207 8 -99 13 -182 10 -184 -4
-4 -417 -70 -441 -71 -10 0 -13 85 -13 395 l0 395 236 0 235 0 35 -26z"/>
<path d="M3358 2023 l-28 -14 0 -605 c0 -554 1 -605 17 -611 25 -10 453 58
488 77 28 15 30 21 30 71 0 30 -4 99 -8 153 l-8 99 113 -119 c62 -65 147 -155
189 -198 l77 -79 36 17 36 17 0 509 0 510 -22 14 c-13 7 -112 48 -221 91
l-197 77 -35 -16 c-43 -21 -43 -24 -9 -197 14 -72 24 -133 22 -135 -2 -1 -99
78 -215 177 -117 98 -218 179 -225 178 -7 -1 -25 -8 -40 -16z m538 -429 l34
-26 0 26 0 26 175 0 175 0 0 -392 -1 -393 -87 93 c-48 50 -150 159 -227 241
-127 136 -140 147 -143 123 -2 -15 4 -108 12 -207 8 -99 13 -182 10 -184 -4
-4 -417 -70 -441 -71 -10 0 -13 85 -13 395 l0 395 236 0 235 0 35 -26z"/>
<path d="M1930 1954 c-325 -28 -350 -35 -350 -90 0 -100 31 -1011 35 -1021 7
-20 28 -17 334 42 257 50 354 75 366 95 5 9 -23 238 -30 251 -4 5 -59 10 -123
10 -64 1 -108 3 -97 6 11 2 35 11 53 19 l32 15 0 97 c0 63 -4 102 -12 110 -9
9 1 12 48 12 79 0 121 21 129 63 3 18 5 118 3 222 l-3 190 -50 2 c-27 0 -178
-10 -335 -23z m358 -371 l-3 -38 -140 -6 c-77 -4 -159 -7 -182 -8 -42 -1 -43
-2 -43 -37 l0 -36 103 4 102 3 0 -85 0 -85 -40 -3 c-22 -1 -59 -5 -82 -8 -40
-5 -43 -8 -43 -35 l0 -29 154 0 153 0 13 -110 c7 -61 10 -113 7 -116 -4 -5
-589 -124 -608 -124 -4 0 -10 134 -13 298 -4 163 -9 332 -12 375 l-6 77 322 0
321 0 -3 -37z"/>
<path d="M827 1950 c-160 -26 -311 -74 -323 -104 -9 -23 56 -969 67 -982 31
-37 285 -42 419 -8 146 37 304 129 405 235 104 109 142 195 152 340 17 258
-98 436 -326 501 -76 23 -301 32 -394 18z m103 -499 l0 -170 37 16 c91 38 133
98 133 191 0 34 -7 78 -14 97 l-15 35 219 0 218 0 8 -32 c14 -66 7 -211 -15
-278 -74 -235 -321 -407 -623 -435 -86 -8 -247 10 -253 29 -2 6 -11 135 -20
286 -8 151 -18 310 -21 353 l-7 77 177 0 176 0 0 -169z m70 131 c31 -31 47
-98 36 -149 -9 -39 -41 -89 -65 -103 -21 -11 -21 -9 -21 135 0 97 4 145 11
145 6 0 23 -13 39 -28z"/>
</g>
</svg>
