<svg id="Calque_1" data-name="Calque 1" xmlns="http://www.w3.org/2000/svg" width="432" height="1292" viewBox="0 0 432 1292"><defs><style>.cls-1{fill:#171819;}</style></defs><title>bar_1</title><path class="cls-1" d="M0,0V1292H432V0ZM383.2,379,326,478l-57.2-99ZM209,864H119V844h90ZM380.7,743.1a3.63,3.63,0,0,1-.7-.9c-1.9-2.7-4.9-5.5-7.3-5.5s-5.2,2.7-6.9,5.3c0,.1-.1.1-.1.2-1.7,2.7-8.6,12.5-19.9,12.5-3.5,0-12.5-1.2-20.1-12.2h0c-.1-.1-.1-.1-.1-.2-1.9-2.7-4.9-5.5-7.3-5.5-1.8,0-4,1.6-6.1,4.2l-.6,1c-.8,1.3-8,12.7-20,12.7-3.5,0-12.5-1.2-20.1-12.2h0c-.1-.1-.1-.1-.1-.2-1.9-2.7-4.9-5.5-7.3-5.5s-5.2,2.7-6.9,5.3h0c-1.2,1.9-8.3,12.5-19.9,12.5-3.5,0-12.4-1.2-20-12.2l-3.8-5.1,12.5-7.7,3.3,3.3a3.63,3.63,0,0,1,.7.9c1.9,2.7,4.9,5.5,7.3,5.5s5.2-2.7,6.9-5.3c0-.1.1-.2.2-.3,2.3-3.8,9.1-12.4,19.8-12.4,3.5,0,12.5,1.2,20,12.2,0,.1.1.1.1.2,1.9,2.7,4.9,5.5,7.3,5.5,1.8,0,4-1.6,6.1-4.2l.6-1c.8-1.3,8-12.7,20.1-12.7,3.5,0,12.5,1.2,20.1,12.2.1.1.1.1.1.2,1.9,2.7,4.9,5.5,7.3,5.5s5.2-2.7,6.9-5.3h0c1.2-1.9,8.3-12.5,19.9-12.5,3.5,0,12.5,1.2,20.1,12.2l3.8,5.1-12.5,7.7Z"/></svg>