<svg xmlns="http://www.w3.org/2000/svg" version="1.0" width="755.1481441189069" height="198.62962981277695" preserveAspectRatio="xMidYMid meet" style=""><rect id="backgroundrect" width="100%" height="100%" x="0" y="0" fill="none" stroke="none"/>
<metadata>
Created by potrace 1.15, written by Peter Selinger 2001-2017
</metadata>

<g class="currentLayer" style=""><title>Layer 1</title><g transform="translate(0,209) scale(0.10000000149011612,-0.10000000149011612) " fill="#04b8b8" stroke="none" id="svg_1" class="selected" fill-opacity="1">
<path d="M1548.018533252356,1842.3542767451213 c-48.35821359127457,-7.41700412423497 -140.6784395382533,-14.83400824846994 -204.4233574540243,-16.688259279528683 c-134.08413768489766,-3.708502062117485 -165.95659664278318,-10.198380670823084 -161.56039540721278,-31.522267527998622 c2.1981006177852076,-9.271255155293714 10.990503088926038,-15.761133763999311 18.683855251174265,-15.761133763999311 c16.485754633389057,0 51.65536451795238,-92.71255155293714 61.54681729798582,-162.24696521763997 c3.2971509266778116,-23.178137888234286 5.495251544463019,-110.32793634799519 6.594301853355623,-193.76923274563862 c0,-83.44129639764341 4.396201235570415,-160.39271418658126 9.891452780033434,-171.51822037293368 c14.28765401560385,-32.449393043528 15.386704324496455,-252.17814022398898 1.0990503088926038,-362.5060765719842 c-7.693352162248227,-55.62753093176227 -15.386704324496455,-122.38056804987701 -17.58480494228166,-148.34008248469942 c-2.1981006177852076,-25.032388919293027 -6.594301853355623,-60.26315850940914 -10.990503088926038,-76.95141778893782 c-10.990503088926038,-40.79352268329234 4.396201235570415,-37.085020621174856 43.962012355704154,10.198380670823084 c65.94301853355623,79.73279433552594 124.19268490486424,121.45344253434764 307.7340864899291,223.4372492425785 c151.66894262717932,85.29554742870216 207.7205083807021,123.30769356540638 297.84263370989567,201.18623686987357 c117.5983830515086,101.98380670823084 176.94709973170922,170.59109485740433 213.21575992516514,249.39676367740088 c31.872458957885513,68.60728814917347 45.061062664596754,158.5384631555225 31.872458957885513,220.65587269599038 c-24.179106795637285,107.54655980140708 -118.69743336040122,222.5101237270491 -215.41386054295035,262.3765208948121 c-64.84396822466363,25.9595144348224 -252.78157104529888,32.449393043528 -382.46950749462616,12.052631701881827 zm189.03665312952785,-60.26315850940914 c59.34871668020061,-21.32388685717554 146.1736910827163,-89.00404949081965 174.74899911392401,-135.3603252672882 c10.990503088926038,-19.4696358261168 26.377207413422493,-41.720648198821706 32.971509266778114,-49.13765232305668 c17.58480494228166,-18.542510310587428 38.46676081124114,-223.4372492425785 29.674358340100305,-287.40890981410513 c-3.2971509266778116,-27.813765465881136 -14.28765401560385,-63.044535055997244 -23.08005648674468,-78.80566881999655 c-17.58480494228166,-28.74089098141051 -165.95659664278318,-180.78947552822743 -176.94709973170922,-180.78947552822743 c-3.2971509266778116,0 -43.962012355704154,-27.813765465881136 -89.02307502030091,-62.11740954046788 c-45.061062664596754,-33.37651855905737 -108.80598058036777,-71.38866469576159 -142.8765401560385,-83.44129639764341 c-32.971509266778114,-12.9797572174112 -68.14111915134144,-28.74089098141051 -78.03257193137487,-36.15789510564548 c-16.485754633389057,-12.052631701881827 -18.683855251174265,-12.052631701881827 -27.476257722315097,2.781376546588114 c-4.396201235570415,9.271255155293714 -9.891452780033434,173.37247140399245 -10.990503088926038,364.36032760304295 c-1.0990503088926038,190.9878561990505 -5.495251544463019,387.53846549127724 -9.891452780033434,436.67611781433385 c-6.594301853355623,99.20243016164274 -5.495251544463019,101.98380670823084 68.14111915134144,125.16194459646513 c53.853465135737586,16.688259279528683 185.73950220285005,8.344129639764342 252.78157104529888,-15.761133763999311 z" id="svg_2" fill="#04b8b8" fill-opacity="1"/>
<path d="M2596.5125279359,1687.5243156517165 c-42.862962046811546,-26.88663995035177 -48.35821359127457,-35.23076959011611 -48.35821359127457,-67.6801626336441 c0,-47.28340129199794 26.377207413422493,-51.9190288696448 98.91452780033434,-15.761133763999311 c70.33921976912664,34.303644074586735 81.32972285805269,50.99190335411542 60.44776698909321,84.3684219131728 c-24.179106795637285,35.23076959011611 -54.952515444630194,35.23076959011611 -111.00408119815299,-0.9271255155293712 z" id="svg_3" fill="#04b8b8" fill-opacity="1"/>
<path d="M2353.6224096706346,1604.083019254073 c-37.36771050234853,-24.105263403763658 -48.35821359127457,-37.085020621174856 -50.55631420905978,-63.044535055997244 c-5.495251544463019,-50.06477783858605 17.58480494228166,-60.26315850940914 75.83447131358966,-36.15789510564548 c94.51832656476392,40.79352268329234 129.68793644932725,101.05668119270148 69.24016946023404,120.52631701881828 c-39.56581112013374,12.9797572174112 -41.763911737918946,12.9797572174112 -94.51832656476392,-21.32388685717554 z" id="svg_4" fill="#04b8b8" fill-opacity="1"/>
<path d="M5092.455779431003,1514.151844247724 c-8.79240247114083,-5.562753093176229 -56.051565753522794,-20.39676134164617 -104.40977934479737,-33.37651855905737 c-65.94301853355623,-17.615384795058056 -100.01357810922696,-22.251012372704913 -138.48033892046809,-17.615384795058056 c-47.25916328238196,5.562753093176229 -52.754414826844986,3.708502062117485 -112.10313150704559,-38.012146136704224 c-34.07055957567072,-24.105263403763658 -59.34871668020061,-47.28340129199794 -56.051565753522794,-51.9190288696448 c8.79240247114083,-11.125506186352457 61.54681729798582,-9.271255155293714 120.89553397818642,6.4898786087056 c68.14111915134144,17.615384795058056 92.32022594697872,17.615384795058056 92.32022594697872,0 c0,-18.542510310587428 -72.53732038691186,-139.99595284493506 -87.92402471140831,-148.34008248469942 c-17.58480494228166,-9.271255155293714 -42.862962046811546,-64.898786087056 -68.14111915134144,-151.12145903128754 c-25.27815710452989,-85.29554742870216 -19.78290556006687,-122.38056804987701 27.476257722315097,-183.57085207481552 c31.872458957885513,-40.79352268329234 93.41927625587132,-51.9190288696448 129.68793644932725,-23.178137888234286 c14.28765401560385,11.125506186352457 31.872458957885513,19.4696358261168 39.56581112013374,19.4696358261168 c21.981006177852077,0 91.22117563808612,39.86639716776297 91.22117563808612,52.84615438517417 c0,5.562753093176229 -29.674358340100305,24.105263403763658 -67.04206884244883,40.79352268329234 c-36.26866019345593,16.688259279528683 -70.33921976912664,36.15789510564548 -74.73542100469706,44.50202474540983 c-5.495251544463019,8.344129639764342 -8.79240247114083,44.50202474540983 -6.594301853355623,79.73279433552594 c2.1981006177852076,52.84615438517417 10.990503088926038,80.6599198510553 47.25916328238196,151.12145903128754 c54.952515444630194,104.76518325481895 120.89553397818642,205.82186444752043 134.08413768489766,205.82186444752043 c5.495251544463019,0 19.78290556006687,12.9797572174112 32.971509266778114,27.813765465881136 c25.27815710452989,29.66801649693988 25.27815710452989,32.449393043528 0,18.542510310587428 z" id="svg_5" fill="#04b8b8" fill-opacity="1"/>
<path d="M5411.180369009859,1466.868442955726 c-126.39078552264944,-76.02429227340845 -158.26324448053495,-102.91093222376021 -192.33380405620568,-167.8097183108162 c-25.27815710452989,-46.35627577646857 -27.476257722315097,-59.33603299387976 -17.58480494228166,-78.80566881999655 c8.79240247114083,-16.688259279528683 8.79240247114083,-20.39676134164617 0,-15.761133763999311 c-7.693352162248227,3.708502062117485 -10.990503088926038,0.9271255155293712 -7.693352162248227,-6.4898786087056 c4.396201235570415,-9.271255155293714 24.179106795637285,-12.052631701881827 75.83447131358966,-10.198380670823084 c42.862962046811546,0.9271255155293712 85.72592409362309,-3.708502062117485 111.00408119815299,-12.052631701881827 c23.08005648674468,-7.41700412423497 41.763911737918946,-11.125506186352457 41.763911737918946,-7.41700412423497 c0,3.708502062117485 5.495251544463019,1.8542510310587428 13.188603706711246,-4.635627577646857 c7.693352162248227,-6.4898786087056 24.179106795637285,-11.125506186352457 38.46676081124114,-11.125506186352457 c14.28765401560385,0 25.27815710452989,-3.708502062117485 25.27815710452989,-9.271255155293714 c0,-4.635627577646857 6.594301853355623,-9.271255155293714 15.386704324496455,-9.271255155293714 c29.674358340100305,0 81.32972285805269,-62.11740954046788 94.51832656476392,-114.03643841011268 c13.188603706711246,-54.70040541623291 5.495251544463019,-84.3684219131728 -30.77340864899291,-111.25506186352455 c-20.881955868959473,-15.761133763999311 -21.981006177852077,-15.761133763999311 -40.664861429026345,0 c-10.990503088926038,9.271255155293714 -30.77340864899291,38.012146136704224 -45.061062664596754,63.97166057152661 c-21.981006177852077,43.57489922988045 -29.674358340100305,48.21052680752731 -73.63637069580446,58.40890747835039 c-34.07055957567072,6.4898786087056 -65.94301853355623,7.41700412423497 -102.21167872701216,0.9271255155293712 c-29.674358340100305,-5.562753093176229 -70.33921976912664,-11.125506186352457 -90.12212532919351,-12.9797572174112 c-38.46676081124114,-3.708502062117485 -41.763911737918946,-5.562753093176229 -136.28223830268288,-74.17004124234971 c-72.53732038691186,-51.9190288696448 -87.92402471140831,-85.29554742870216 -25.27815710452989,-51.9190288696448 c56.051565753522794,29.66801649693988 143.97559046493112,34.303644074586735 248.38536980972847,12.9797572174112 c63.744917915771026,-12.9797572174112 86.8249744025157,-21.32388685717554 86.8249744025157,-32.449393043528 c0,-7.41700412423497 12.089553397818642,-24.105263403763658 27.476257722315097,-36.15789510564548 c26.377207413422493,-21.32388685717554 27.476257722315097,-21.32388685717554 74.73542100469706,-5.562753093176229 c57.1506160624154,18.542510310587428 178.04615004060182,98.27530464611336 178.04615004060182,117.74494047223016 c0,8.344129639764342 8.79240247114083,25.032388919293027 18.683855251174265,37.085020621174856 c31.872458957885513,41.720648198821706 41.763911737918946,89.93117500634901 28.5753080312077,141.8502038759938 c-13.188603706711246,51.9190288696448 -41.763911737918946,79.73279433552594 -80.23067254916008,79.73279433552594 c-14.28765401560385,0 -48.35821359127457,15.761133763999311 -76.93352162248227,36.15789510564548 c-49.45726390016717,34.303644074586735 -56.051565753522794,36.15789510564548 -143.97559046493112,39.86639716776297 c-50.55631420905978,1.8542510310587428 -97.81547749144174,8.344129639764342 -103.31072903590476,12.9797572174112 c-5.495251544463019,4.635627577646857 -2.1981006177852076,27.813765465881136 9.891452780033434,59.33603299387976 c15.386704324496455,40.79352268329234 26.377207413422493,53.77327990070354 54.952515444630194,66.75303711811473 c32.971509266778114,13.906882732940568 39.56581112013374,13.906882732940568 71.43827007801924,0.9271255155293712 c30.77340864899291,-12.052631701881827 34.07055957567072,-17.615384795058056 30.77340864899291,-45.429150260939196 c-4.396201235570415,-26.88663995035177 -1.0990503088926038,-32.449393043528 26.377207413422493,-41.720648198821706 c23.08005648674468,-7.41700412423497 50.55631420905978,-7.41700412423497 97.81547749144174,-0.9271255155293712 c98.91452780033434,12.9797572174112 140.6784395382533,31.522267527998622 169.25374756946098,72.31579021129096 l25.27815710452989,36.15789510564548 l-38.46676081124114,-31.522267527998622 c-31.872458957885513,-25.9595144348224 -43.962012355704154,-29.66801649693988 -69.24016946023404,-25.032388919293027 c-43.962012355704154,9.271255155293714 -92.32022594697872,40.79352268329234 -92.32022594697872,60.26315850940914 c0,19.4696358261168 -65.94301853355623,75.09716675787907 -89.02307502030091,75.09716675787907 c-8.79240247114083,0 -57.1506160624154,-25.032388919293027 -108.80598058036777,-56.55465644729165 z" id="svg_6" fill="#04b8b8" fill-opacity="1"/>
<path d="M3165.820587942269,1480.7753256886667 c-3.2971509266778116,-3.708502062117485 -57.1506160624154,-21.32388685717554 -118.69743336040122,-39.86639716776297 c-141.7774898471459,-42.64777371435108 -153.86704324496455,-58.40890747835039 -37.36771050234853,-50.06477783858605 c83.52782347583789,5.562753093176229 84.62687378473049,5.562753093176229 72.53732038691186,-12.9797572174112 c-6.594301853355623,-10.198380670823084 -19.78290556006687,-21.32388685717554 -28.5753080312077,-25.032388919293027 c-38.46676081124114,-12.052631701881827 -82.42877316694529,-154.829961093405 -82.42877316694529,-266.08502295692955 c0,-46.35627577646857 6.594301853355623,-71.38866469576159 28.5753080312077,-108.47368531693644 c38.46676081124114,-64.898786087056 174.74899911392401,-166.88259279528683 197.82905560066868,-148.34008248469942 c3.2971509266778116,2.781376546588114 -10.990503088926038,46.35627577646857 -31.872458957885513,96.42105361505462 c-40.664861429026345,99.20243016164274 -47.25916328238196,152.97571006234628 -34.07055957567072,280.91903120539945 c6.594301853355623,67.6801626336441 10.990503088926038,80.6599198510553 40.664861429026345,109.40081083246582 c69.24016946023404,66.75303711811473 160.46134509832015,77.8785433044672 254.9796716630841,31.522267527998622 c80.23067254916008,-38.9392716522336 117.5983830515086,-76.02429227340845 127.48983583154205,-127.94332114305323 c45.061062664596754,-219.728747180461 35.16960988456332,-313.3684242489275 -56.051565753522794,-508.0647825100955 c-65.94301853355623,-139.0688273294057 -191.23475374731308,-331.91093455951494 -279.15877845872143,-426.4777371435108 c-32.971509266778114,-36.15789510564548 -26.377207413422493,-32.449393043528 30.77340864899291,18.542510310587428 c39.56581112013374,35.23076959011611 103.31072903590476,108.47368531693644 140.6784395382533,162.24696521763997 c94.51832656476392,134.43319975175885 237.39486672080244,373.6315827583366 295.6445330921104,496.0121508082136 c45.061062664596754,95.49392809952525 47.25916328238196,107.54655980140708 47.25916328238196,190.06073068352111 c-1.0990503088926038,125.16194459646513 -25.27815710452989,185.42510310587429 -101.11262841811956,249.39676367740088 l-59.34871668020061,50.06477783858605 l-121.99458428707902,-5.562753093176229 c-113.20218181593819,-5.562753093176229 -129.68793644932725,-9.271255155293714 -198.92810590956128,-39.86639716776297 c-40.664861429026345,-17.615384795058056 -76.93352162248227,-30.595142012469253 -80.23067254916008,-27.813765465881136 c-3.2971509266778116,2.781376546588114 4.396201235570415,27.813765465881136 16.485754633389057,56.55465644729165 c21.981006177852077,48.21052680752731 21.981006177852077,50.99190335411542 3.2971509266778116,50.99190335411542 c-10.990503088926038,0 -23.08005648674468,-2.781376546588114 -26.377207413422493,-5.562753093176229 z" id="svg_7" fill="#04b8b8" fill-opacity="1"/>
<path d="M4034.0703319674262,1480.7753256886667 c-3.2971509266778116,-3.708502062117485 -57.1506160624154,-21.32388685717554 -118.69743336040122,-39.86639716776297 c-141.7774898471459,-42.64777371435108 -153.86704324496455,-58.40890747835039 -37.36771050234853,-50.06477783858605 c83.52782347583789,5.562753093176229 84.62687378473049,5.562753093176229 72.53732038691186,-12.9797572174112 c-6.594301853355623,-10.198380670823084 -19.78290556006687,-21.32388685717554 -28.5753080312077,-25.032388919293027 c-38.46676081124114,-12.052631701881827 -82.42877316694529,-154.829961093405 -82.42877316694529,-266.08502295692955 c0,-46.35627577646857 6.594301853355623,-71.38866469576159 28.5753080312077,-108.47368531693644 c38.46676081124114,-64.898786087056 174.74899911392401,-166.88259279528683 197.82905560066868,-148.34008248469942 c3.2971509266778116,2.781376546588114 -10.990503088926038,46.35627577646857 -31.872458957885513,96.42105361505462 c-40.664861429026345,99.20243016164274 -47.25916328238196,152.97571006234628 -34.07055957567072,280.91903120539945 c6.594301853355623,67.6801626336441 10.990503088926038,80.6599198510553 40.664861429026345,109.40081083246582 c69.24016946023404,66.75303711811473 160.46134509832015,77.8785433044672 254.9796716630841,31.522267527998622 c80.23067254916008,-38.9392716522336 117.5983830515086,-76.02429227340845 127.48983583154205,-127.94332114305323 c45.061062664596754,-219.728747180461 35.16960988456332,-313.3684242489275 -56.051565753522794,-508.0647825100955 c-65.94301853355623,-139.0688273294057 -191.23475374731308,-331.91093455951494 -279.15877845872143,-426.4777371435108 c-32.971509266778114,-36.15789510564548 -26.377207413422493,-32.449393043528 30.77340864899291,18.542510310587428 c39.56581112013374,35.23076959011611 103.31072903590476,108.47368531693644 140.6784395382533,162.24696521763997 c94.51832656476392,134.43319975175885 237.39486672080244,373.6315827583366 295.6445330921104,496.0121508082136 c45.061062664596754,95.49392809952525 47.25916328238196,107.54655980140708 47.25916328238196,190.06073068352111 c-1.0990503088926038,125.16194459646513 -25.27815710452989,185.42510310587429 -101.11262841811956,249.39676367740088 l-59.34871668020061,50.06477783858605 l-121.99458428707902,-5.562753093176229 c-113.20218181593819,-5.562753093176229 -129.68793644932725,-9.271255155293714 -198.92810590956128,-39.86639716776297 c-40.664861429026345,-17.615384795058056 -76.93352162248227,-30.595142012469253 -80.23067254916008,-27.813765465881136 c-3.2971509266778116,2.781376546588114 4.396201235570415,27.813765465881136 16.485754633389057,56.55465644729165 c21.981006177852077,48.21052680752731 21.981006177852077,50.99190335411542 3.2971509266778116,50.99190335411542 c-10.990503088926038,0 -23.08005648674468,-2.781376546588114 -26.377207413422493,-5.562753093176229 z" id="svg_8" fill="#04b8b8" fill-opacity="1"/>
<path d="M2458.032189015432,1453.8886857383147 c-157.16419417164235,-40.79352268329234 -263.7720741342249,-151.12145903128754 -287.95118092986223,-296.68016496939885 c-10.990503088926038,-66.75303711811473 0,-122.38056804987701 32.971509266778114,-168.7368438263456 c56.051565753522794,-75.09716675787907 204.4233574540243,-149.26720800022878 279.15877845872143,-138.14170181387635 c113.20218181593819,15.761133763999311 151.66894262717932,25.032388919293027 198.92810590956128,46.35627577646857 c29.674358340100305,12.9797572174112 58.249666371308,24.105263403763658 63.744917915771026,24.105263403763658 c18.683855251174265,0 138.48033892046809,49.13765232305668 138.48033892046809,56.55465644729165 c0,11.125506186352457 -7.693352162248227,10.198380670823084 -43.962012355704154,-5.562753093176229 c-64.84396822466363,-28.74089098141051 -182.44235127617225,-62.11740954046788 -214.31481023405777,-61.19028402493851 c-17.58480494228166,0.9271255155293712 -56.051565753522794,5.562753093176229 -85.72592409362309,11.125506186352457 c-42.862962046811546,8.344129639764342 -58.249666371308,17.615384795058056 -84.62687378473049,50.99190335411542 c-36.26866019345593,43.57489922988045 -87.92402471140831,127.01619562752387 -87.92402471140831,139.0688273294057 c1.0990503088926038,24.105263403763658 34.07055957567072,32.449393043528 214.31481023405777,54.70040541623291 c240.69201764748024,30.595142012469253 283.5549796942918,45.429150260939196 98.91452780033434,35.23076959011611 c-72.53732038691186,-3.708502062117485 -175.84804942281662,-7.41700412423497 -230.8005648674468,-7.41700412423497 l-98.91452780033434,0 l-3.2971509266778116,48.21052680752731 c-3.2971509266778116,52.84615438517417 14.28765401560385,91.78542603740776 62.64586760687842,135.3603252672882 c40.664861429026345,37.085020621174856 74.73542100469706,50.99190335411542 150.56989231828672,57.48178196282102 c75.83447131358966,7.41700412423497 138.48033892046809,-4.635627577646857 195.63095498288348,-37.085020621174856 c37.36771050234853,-21.32388685717554 42.862962046811546,-22.251012372704913 75.83447131358966,-11.125506186352457 l35.16960988456332,12.9797572174112 l-46.16011297348936,19.4696358261168 c-101.11262841811956,44.50202474540983 -267.06922506090274,60.26315850940914 -362.68660193455923,34.303644074586735 z" id="svg_9" fill="#04b8b8" fill-opacity="1"/>
</g></g></svg>