<svg xmlns="http://www.w3.org/2000/svg" version="1.0" width="615.8165143795381" height="231.6330287590763" preserveAspectRatio="xMidYMid meet"><rect id="backgroundrect" width="100%" height="100%" x="0" y="0" fill="none" stroke="none" class="" style=""/>


<g class="currentLayer" style=""><title>Layer 1</title><g transform="translate(0,272) scale(0.10000000149011612,-0.10000000149011612) " fill="#ffffff" stroke="#000000" id="svg_1" class="" fill-opacity="1" stroke-opacity="1">
<path d="M2358,2129.2962946891785 l-28,-14 l0,-614 c0,-338 4,-616 8,-619 c14,-9 465,64 501,81 l34,15 l-7,127 c-4,69 -10,137 -13,151 c-5,26 50,-27 281,-268 l98,-103 l34,16 l34,16 l-2,520 l-3,521 l-210,84 c-115,46 -217,84 -226,84 c-9,0 -30,-7 -48,-16 c-36,-18 -36,4 5,-209 c13,-66 22,-120 21,-121 c-1,-1 -99,81 -217,182 c-118,100 -219,183 -225,182 c-5,0 -22,-7 -37,-15 zm484,-1068 c1,-36 2,-65 1,-65 c-3,0 -388,-60 -420,-65 l-33,-6 l0,101 l0,100 l224,0 l224,0 l4,-65 zm438,-29 l0,-94 l-85,88 c-47,49 -85,91 -85,94 c0,3 38,6 85,6 l85,0 l0,-94 z" id="svg_2" fill="#ffffff" fill-opacity="1" stroke="#000000" stroke-opacity="1"/>
<path d="M3358,2129.2962946891785 l-28,-14 l0,-614 c0,-338 4,-616 8,-619 c14,-9 465,64 501,81 l34,15 l-7,127 c-4,69 -10,137 -13,151 c-5,26 50,-27 281,-268 l98,-103 l34,16 l34,16 l-2,520 l-3,521 l-210,84 c-115,46 -217,84 -226,84 c-9,0 -30,-7 -48,-16 c-36,-18 -36,4 5,-209 c13,-66 22,-120 21,-121 c-1,-1 -99,81 -217,182 c-118,100 -219,183 -225,182 c-5,0 -22,-7 -37,-15 zm484,-1068 c1,-36 2,-65 1,-65 c-3,0 -388,-60 -420,-65 l-33,-6 l0,101 l0,100 l224,0 l224,0 l4,-65 zm438,-29 l0,-94 l-85,88 c-47,49 -85,91 -85,94 c0,3 38,6 85,6 l85,0 l0,-94 z" id="svg_3" fill="#ffffff" fill-opacity="1" stroke="#000000" stroke-opacity="1"/>
<path d="M4475,2117.2962946891785 c-102,-49 -145,-114 -145,-218 c0,-57 26,-133 49,-147 c15,-10 4,-25 -25,-36 l-24,-10 l0,-404 c0,-223 3,-407 8,-410 c14,-8 406,45 440,60 c25,12 32,21 32,43 l0,29 l79,-53 c111,-73 189,-97 331,-102 c140,-6 204,8 337,73 c108,53 205,137 248,215 c28,50 30,61 30,159 c0,95 -3,111 -28,162 c-33,67 -90,121 -163,155 c-35,16 -52,29 -47,36 c4,7 47,77 95,156 c49,79 88,151 86,160 c-4,20 -129,83 -198,99 c-81,19 -225,15 -315,-8 c-171,-44 -331,-146 -379,-242 c-48,-97 -28,-221 46,-283 c50,-42 103,-64 226,-96 c137,-35 202,-57 202,-69 c0,-29 -27,-61 -60,-71 c-71,-21 -155,23 -211,110 c-16,25 -16,25 -52,8 c-32,-15 -46,-38 -129,-197 l-93,-179 l-5,352 c-5,348 -5,352 -26,355 l-21,3 l24,46 c27,54 31,144 10,196 c-53,126 -189,172 -322,108 zm959,-371 c24,-9 53,-47 43,-57 c-7,-6 -126,28 -133,38 c-3,5 5,13 18,18 c30,13 42,13 72,1 zm-644,-690 c0,-38 -3,-70 -7,-70 c-13,0 -325,-39 -360,-45 l-33,-6 l0,96 l0,95 l200,0 l200,0 l0,-70 zm912,20 c-115,-107 -252,-162 -407,-162 c-147,-1 -237,26 -362,109 l-52,34 l16,35 l17,34 l420,0 l421,-1 l-53,-49 z" id="svg_4" fill="#ffffff" fill-opacity="1" stroke="#000000" stroke-opacity="1"/>
<path d="M1917,2051.2962946891785 c-187,-16 -279,-28 -303,-40 l-34,-16 l0,-87 c1,-211 30,-976 38,-984 c10,-10 612,106 659,128 c18,8 35,19 38,24 c8,12 -13,207 -26,238 c-8,21 -14,22 -104,22 c-96,0 -114,9 -58,31 c24,9 24,10 21,113 l-3,105 l29,5 c16,3 41,6 56,6 c15,0 41,7 59,16 l31,16 l-2,221 l-3,222 l-65,2 c-36,0 -186,-9 -333,-22 zm373,-944 c0,-16 -36,-25 -302,-79 c-167,-33 -306,-58 -310,-55 c-5,2 -8,38 -8,79 l0,74 l310,0 c295,0 310,-1 310,-19 z" id="svg_5" fill="#ffffff" fill-opacity="1" stroke="#000000" stroke-opacity="1"/>
<path d="M790,2041.2962946891785 c-90,-15 -216,-50 -259,-71 c-28,-14 -31,-20 -31,-62 c0,-100 60,-946 67,-953 c16,-15 117,-29 208,-29 c354,0 687,217 760,495 c19,76 19,224 0,300 c-44,168 -170,279 -361,320 c-84,18 -280,18 -384,0 zm203,-359 c31,-29 51,-97 42,-145 c-8,-44 -40,-98 -66,-111 c-18,-10 -19,-5 -19,135 c0,80 4,145 9,145 c4,0 20,-11 34,-24 zm267,-576 c-44,-35 -165,-90 -246,-110 c-115,-30 -318,-29 -376,2 c-14,7 -18,22 -18,68 l0,60 l333,0 l332,0 l-25,-20 z" id="svg_6" fill="#ffffff" fill-opacity="1" stroke="#000000" stroke-opacity="1"/>
</g></g></svg>