<?xml version="1.0" standalone="no"?>
<!DOCTYPE svg PUBLIC "-//W3C//DTD SVG 20010904//EN"
 "http://www.w3.org/TR/2001/REC-SVG-20010904/DTD/svg10.dtd">
<svg version="1.0" xmlns="http://www.w3.org/2000/svg"
 width="1400.000000pt" height="1400.000000pt" viewBox="0 0 1400.000000 1400.000000"
 preserveAspectRatio="xMidYMid meet">
<metadata>
Created by potrace 1.11, written by Peter Selinger 2001-2013
</metadata>
<g transform="translate(0.000000,1400.000000) scale(0.100000,-0.100000)"
fill="#000000" stroke="none">
<path d="M6485 12351 c-11 -5 -39 -31 -63 -59 -65 -78 -139 -109 -277 -118
-121 -7 -142 -14 -155 -48 -14 -37 -54 -41 -139 -14 -54 17 -87 35 -122 66
-55 49 -104 72 -153 72 -43 0 -56 -20 -56 -84 0 -55 -12 -64 -102 -73 -39 -3
-118 -26 -205 -59 -114 -42 -157 -64 -215 -109 -103 -78 -153 -90 -229 -55
-86 39 -143 18 -186 -68 -22 -46 -37 -61 -73 -79 -56 -29 -88 -67 -96 -116 -4
-21 -16 -49 -26 -63 -20 -25 -185 -114 -211 -114 -8 0 -41 14 -73 31 -51 25
-64 29 -87 20 -31 -12 -66 -78 -67 -122 0 -36 -14 -45 -85 -58 -78 -14 -126
-61 -150 -148 -8 -32 -24 -85 -35 -118 -24 -72 -25 -97 -4 -158 9 -26 14 -54
11 -62 -6 -15 -66 -35 -105 -35 -33 0 -73 46 -95 108 -20 55 -77 115 -105 110
-9 -2 -26 -19 -38 -38 -35 -54 -52 -70 -77 -70 -60 0 -92 -76 -77 -183 l10
-70 -46 -92 c-50 -101 -50 -102 -28 -275 5 -42 1 -51 -54 -138 -40 -62 -62
-107 -66 -137 -4 -25 -11 -45 -16 -45 -18 0 -60 63 -81 121 -41 112 -57 93
-70 -82 -9 -112 -7 -148 7 -225 16 -92 16 -93 -6 -123 -11 -17 -26 -58 -32
-92 -15 -77 -3 -126 54 -221 l42 -70 -24 -45 c-35 -67 -48 -69 -113 -23 -71
51 -104 52 -146 5 -45 -51 -41 -78 19 -136 28 -27 50 -54 50 -61 0 -7 -11 -37
-25 -66 -14 -30 -25 -62 -25 -72 0 -10 22 -43 49 -72 27 -30 46 -59 43 -65 -4
-5 -26 -22 -49 -36 -56 -35 -75 -66 -76 -126 -2 -44 2 -54 33 -86 19 -20 47
-44 63 -53 60 -36 16 -81 -87 -89 -73 -6 -122 7 -183 48 -47 33 -71 36 -80 12
-11 -29 47 -62 197 -109 80 -26 153 -53 163 -62 26 -23 22 -105 -12 -225 -16
-56 -32 -141 -36 -187 -4 -52 -18 -118 -36 -170 -42 -122 -39 -147 24 -219
l30 -35 -8 -135 c-4 -75 -7 -151 -6 -170 3 -52 30 -100 74 -132 47 -34 89 -47
176 -56 63 -6 64 -7 81 -47 11 -25 20 -80 23 -143 8 -142 28 -176 139 -235 64
-34 62 -30 88 -149 10 -48 28 -105 38 -126 34 -66 106 -119 183 -133 64 -12
72 -19 90 -72 18 -54 68 -104 121 -120 24 -7 69 -29 101 -50 41 -26 86 -43
152 -59 52 -12 100 -28 107 -37 7 -8 29 -47 48 -85 41 -82 70 -107 134 -114
36 -5 59 0 107 22 l61 27 59 -37 c32 -20 82 -41 111 -47 49 -10 58 -9 131 21
43 17 94 31 113 31 42 0 97 -26 88 -42 -4 -6 -8 -83 -10 -172 -3 -188 -27
-441 -53 -571 -12 -57 -33 -120 -60 -172 -43 -87 -47 -98 -31 -88 16 10 14 5
-55 -136 -35 -73 -62 -135 -60 -139 2 -4 17 -5 34 -2 24 3 33 13 51 56 32 74
110 229 121 241 13 13 8 0 -61 -160 l-57 -130 26 -6 c14 -4 43 -7 63 -8 36 -1
39 1 68 59 50 99 47 77 -6 -56 -3 -6 19 -16 53 -23 32 -7 84 -23 115 -35 l57
-23 107 256 c103 247 370 808 380 798 6 -6 -54 -139 -166 -372 -75 -155 -303
-685 -298 -690 2 -2 36 -19 77 -40 58 -29 76 -34 82 -23 5 7 27 46 50 86 22
41 42 72 45 69 2 -2 -7 -48 -21 -102 -14 -54 -24 -99 -22 -101 1 -1 26 -14 55
-28 39 -20 54 -23 57 -14 2 7 42 123 88 258 99 288 149 419 154 404 2 -6 -48
-162 -111 -347 l-115 -336 85 -45 c46 -25 88 -46 93 -46 5 0 42 97 81 215 40
119 76 218 81 220 10 7 -12 -71 -81 -284 l-54 -164 24 -19 c13 -10 26 -15 30
-11 4 4 87 215 185 468 298 775 327 849 337 865 27 44 -74 -229 -344 -934 -94
-245 -157 -421 -151 -423 6 -2 37 -22 68 -44 32 -22 58 -39 60 -37 1 2 7 12
14 23 11 18 12 17 6 -10 -11 -53 10 -14 60 110 49 123 104 238 104 220 1 -5
-32 -92 -72 -192 l-74 -183 61 -47 c34 -27 96 -78 138 -115 42 -38 79 -65 81
-61 2 5 26 73 52 153 46 139 72 200 86 200 3 0 -9 -40 -27 -89 -18 -49 -49
-132 -68 -185 l-35 -96 65 -57 c36 -32 69 -59 73 -61 4 -1 26 46 50 105 75
188 582 1298 601 1317 5 5 12 8 14 5 6 -6 -143 -343 -171 -390 -29 -47 -349
-754 -417 -923 -44 -107 -54 -142 -45 -152 18 -22 24 -17 49 36 30 65 37 58
10 -11 l-20 -54 93 -93 93 -93 59 148 c66 166 122 293 129 293 8 0 -44 -142
-112 -311 l-60 -147 118 -117 c65 -64 120 -113 123 -109 3 5 30 77 61 161 60
160 105 267 112 260 2 -2 -32 -102 -76 -221 -45 -120 -80 -221 -78 -225 2 -3
27 -28 55 -55 52 -48 53 -48 62 -25 20 52 89 206 109 244 38 72 23 20 -38
-129 -33 -81 -60 -151 -60 -156 0 -4 49 -53 109 -109 l109 -101 32 93 c32 94
115 274 104 227 -3 -14 -28 -85 -55 -157 -70 -188 -70 -180 -12 -228 86 -72
183 -145 192 -145 6 0 13 9 16 21 13 39 67 150 72 146 2 -3 -12 -47 -31 -98
-19 -51 -34 -94 -33 -94 12 -5 131 -107 200 -172 48 -46 91 -83 95 -83 38 0
426 891 667 1530 76 201 141 369 146 374 4 4 52 -6 106 -24 77 -26 108 -42
143 -75 32 -29 67 -49 114 -65 64 -21 146 -78 201 -140 41 -45 92 -62 208 -68
126 -6 139 -13 190 -100 37 -64 130 -145 215 -188 41 -21 66 -27 115 -26 34 0
118 0 187 0 69 -1 150 -1 180 -1 43 -1 74 8 139 37 l84 38 131 -7 c154 -8 197
0 272 51 60 40 101 54 164 54 107 0 171 37 241 138 38 55 68 84 120 118 83 55
156 134 195 212 28 56 28 60 36 309 l9 252 -34 68 c-19 37 -44 104 -56 148
-12 44 -32 91 -44 104 -12 12 -62 43 -110 67 -104 53 -106 57 -136 223 -11 61
-30 134 -43 163 -12 29 -67 108 -121 175 -131 164 -137 180 -147 367 -8 148
-29 329 -50 433 -15 69 -77 171 -131 211 -101 75 -109 84 -119 141 -14 78 -12
227 5 298 8 34 17 97 21 141 9 106 -4 142 -69 194 -59 46 -82 56 -132 60 -27
2 -42 10 -60 34 -14 18 -25 35 -25 37 0 2 25 7 56 11 30 3 70 12 87 20 88 38
171 157 183 263 11 91 -29 233 -66 233 -4 0 -18 -25 -30 -55 -30 -75 -39 -62
-10 15 l23 61 -24 27 c-12 15 -62 65 -109 112 -47 47 -117 120 -155 163 l-69
79 -47 -94 c-58 -112 -62 -105 -10 17 l38 90 -40 55 c-22 30 -77 93 -121 140
-45 47 -89 96 -97 109 -15 23 -18 16 -133 -230 -131 -280 -224 -469 -231 -469
-5 0 47 116 214 478 99 215 119 267 111 283 -6 10 -14 19 -18 19 -4 0 -44 -75
-89 -167 -45 -93 -89 -177 -97 -188 -23 -30 13 55 98 230 l73 150 -31 40 c-17
22 -65 76 -107 120 -105 111 -128 150 -154 257 -20 82 -21 97 -9 152 19 92 28
313 15 366 -6 25 -13 65 -15 90 -4 41 -38 157 -55 188 -5 9 -15 -3 -30 -38
-31 -73 -38 -56 -7 19 l25 61 -20 70 c-34 123 -118 310 -139 310 -3 0 -36 -64
-73 -141 -37 -78 -70 -139 -73 -136 -3 3 25 70 61 150 l67 145 -48 60 c-27 33
-62 76 -78 97 l-29 37 -40 -71 c-23 -39 -42 -69 -44 -67 -2 2 12 37 31 79 l34
75 -62 61 -63 62 -16 -38 c-16 -35 -16 -20 -2 32 5 16 -9 32 -62 76 -73 59
-163 123 -166 117 -2 -1 -27 -64 -56 -138 -30 -74 -78 -187 -108 -250 -61
-130 -174 -342 -180 -337 -2 2 46 105 106 228 60 123 135 289 166 369 l58 145
-59 53 c-136 122 -288 217 -483 301 -106 46 -101 45 -101 31 0 -14 -264 -610
-301 -680 -52 -98 -19 -11 101 265 65 149 134 307 153 353 l36 84 -64 29 c-36
16 -72 29 -80 29 -12 0 -14 4 -5 19 20 38 11 85 -26 147 -67 108 -68 112 -57
168 14 67 1 107 -46 148 -47 41 -57 59 -65 128 -4 30 -14 66 -22 78 -25 39
-90 61 -200 68 -102 6 -135 17 -244 80 -43 24 -51 25 -171 22 -140 -3 -162
-12 -174 -69 -8 -37 -22 -29 -35 22 -20 73 -107 145 -200 164 -19 4 -64 24
-100 45 -95 57 -164 77 -205 61z"/>
<path d="M4600 4258 c-11 -18 -20 -36 -20 -40 0 -17 11 -6 30 32 25 48 18 53
-10 8z"/>
</g>
</svg>
